<svg xmlns="http://www.w3.org/2000/svg" viewBox="0 0 1080 1080"><defs><style>.cls-1{fill:#fff;}.cls-2,.cls-4{fill:none;stroke-linecap:round;stroke-miterlimit:10;}.cls-2{stroke:#0b9e4a;stroke-width:6px;}.cls-3,.cls-5{fill:#0b9e4a;}.cls-4{stroke:#fff;stroke-width:3px;}.cls-5{font-size:198px;font-family:GoodlySemibold, Goodly;letter-spacing:0.07em;}.cls-6{letter-spacing:0.05em;}</style></defs><g id="P2"><rect class="cls-1" width="1080" height="1080"/><line class="cls-2" x1="255.57" y1="454.2" x2="269.27" y2="430.03"/><line class="cls-2" x1="182.22" y1="453.79" x2="168.52" y2="429.62"/><path class="cls-3" d="M138.87,518.89A76.86,76.86,0,0,1,151,479.7c22.33-34.12,64.31-34.82,68-34.82s45.61.69,67.95,34.76a77,77,0,0,1,12.19,39.25Z"/><circle class="cls-1" cx="256.04" cy="482.77" r="6.69"/><circle class="cls-1" cx="182.02" cy="482.77" r="6.69"/><path class="cls-3" d="M299.15,518.09V639A11.23,11.23,0,0,1,288,650.38H244.89A11.23,11.23,0,0,1,233.76,639l.25-36.13a5.74,5.74,0,0,0-5.68-5.84H210a5.75,5.75,0,0,0-5.68,5.8V639a11.23,11.23,0,0,1-11.14,11.34H150A11.23,11.23,0,0,1,138.87,639V518.09Z"/><line class="cls-4" x1="299.34" y1="524.72" x2="139.05" y2="524.72"/><text class="cls-5" transform="translate(335.8 619.42)">a<tspan class="cls-6" x="131.08" y="0">k</tspan><tspan x="245.32" y="0">ash</tspan></text></g></svg>